/* XPM */
static char *_13c1a8872ce404fc65e1a1ad350343f[] = {
/* columns rows colors chars-per-pixel */
"64 64 256 2 ",
"   c #190504",
".  c #1A130A",
"X  c #250E0D",
"o  c #2B0E0D",
"O  c #260A04",
"+  c #330D07",
"@  c #25120D",
"#  c #2B110E",
"$  c #2B1706",
"%  c #36160A",
"&  c #270B14",
"*  c #2B1614",
"=  c #351913",
"-  c #3A2519",
";  c #332A1B",
":  c #372D24",
">  c #2B1320",
",  c #461D16",
"<  c #45220E",
"1  c #472818",
"2  c #582A18",
"3  c #48351B",
"4  c #542D15",
"5  c #6B331B",
"6  c #4A3827",
"7  c #563926",
"8  c #4D332A",
"9  c #683926",
"0  c #763B28",
"q  c #6A342E",
"w  c #57442B",
"e  c #5D4A34",
"r  c #594837",
"t  c #5B513B",
"y  c #664629",
"u  c #78452A",
"i  c #674B35",
"p  c #7A4736",
"a  c #695439",
"s  c #775739",
"d  c #69512E",
"f  c #7D633B",
"g  c #5B5245",
"h  c #695943",
"j  c #765B45",
"k  c #6E584E",
"l  c #776549",
"z  c #786954",
"x  c #7B7458",
"c  c #6E694F",
"v  c #7C7364",
"b  c #8A3B2B",
"n  c #854A2C",
"m  c #89522D",
"M  c #8B4B33",
"N  c #874937",
"B  c #944C37",
"V  c #8C533C",
"C  c #885739",
"Z  c #97573A",
"A  c #944F2C",
"S  c #A3593C",
"D  c #A3493B",
"F  c #97633B",
"G  c #8D623E",
"H  c #A5693C",
"J  c #8B5B45",
"K  c #9C5C43",
"L  c #955A45",
"P  c #834F42",
"I  c #A55A45",
"U  c #B25B4F",
"Y  c #846B4C",
"T  c #876748",
"R  c #9D6244",
"E  c #9B6B4C",
"W  c #956848",
"Q  c #8C734D",
"!  c #9C734D",
"~  c #96754C",
"^  c #876D53",
"/  c #986C52",
"(  c #877558",
")  c #997756",
"_  c #A5654A",
"`  c #AB6A4B",
"'  c #A76647",
"]  c #B26949",
"[  c #A8734A",
"{  c #B47A4B",
"}  c #AC6C52",
"|  c #A56953",
" . c #B56B53",
".. c #AC7353",
"X. c #A67858",
"o. c #BB755C",
"O. c #B47C5C",
"+. c #BB7B5D",
"@. c #B37555",
"#. c #887966",
"$. c #997B65",
"%. c #896F60",
"&. c #A87D61",
"*. c #B97C62",
"=. c #C27958",
"-. c #CA694A",
";. c #C27D64",
":. c #7B8F5E",
">. c #9C845B",
",. c #89835F",
"<. c #BA854C",
"1. c #A8845A",
"2. c #BB8658",
"3. c #8A8769",
"4. c #978767",
"5. c #97956C",
"6. c #8C8A73",
"7. c #978B77",
"8. c #9A9678",
"9. c #A98667",
"0. c #BC8364",
"q. c #B48B64",
"w. c #B88A68",
"e. c #BC926B",
"r. c #B89468",
"t. c #A98C74",
"y. c #A59678",
"u. c #BA9674",
"i. c #A7966E",
"p. c #A7A37B",
"a. c #B6A67C",
"s. c #BDB47C",
"d. c #C3875B",
"f. c #C7955A",
"g. c #D1925F",
"h. c #C48B6B",
"j. c #C88868",
"k. c #C8956A",
"l. c #C88C71",
"z. c #CB9B7B",
"x. c #C69875",
"c. c #D39D7C",
"v. c #D69976",
"b. c #D38F6C",
"n. c #D5A569",
"m. c #CCA37D",
"M. c #CAA678",
"N. c #D3A37E",
"B. c #D7A77B",
"V. c #D9B678",
"C. c #D4AD6D",
"Z. c #E3BB7A",
"A. c #D8BA5A",
"S. c #E6C37D",
"D. c #9C9686",
"F. c #AA9A84",
"G. c #A9A587",
"H. c #B5AB8A",
"J. c #BCB48B",
"K. c #B9B388",
"L. c #ADAB94",
"P. c #B5AC93",
"I. c #B5B393",
"U. c #BAB593",
"Y. c #BDB996",
"T. c #BCB99B",
"R. c #B7B69B",
"E. c #ADB28F",
"W. c #BDBCA3",
"Q. c #B9B7A5",
"!. c #B3ACA3",
"~. c #CF9E80",
"^. c #CBA583",
"/. c #D4A582",
"(. c #DAA584",
"). c #D5AA84",
"_. c #DBAB85",
"`. c #DBAC8A",
"'. c #D5AC89",
"]. c #C5B988",
"[. c #DBB385",
"{. c #DCB48C",
"}. c #DDBA8C",
"|. c #D6B387",
" X c #C4BB93",
".X c #C2BD9B",
"XX c #C8B897",
"oX c #DBB895",
"OX c #E3AC88",
"+X c #E2B38C",
"@X c #E3BB8C",
"#X c #E6B888",
"$X c #E3BC94",
"%X c #E7BA96",
"&X c #F2BF97",
"*X c #C3BCA3",
"=X c #CABBB2",
"-X c #C9C29D",
";X c #C9C299",
":X c #DCC397",
">X c #D5C287",
",X c #E7C589",
"<X c #E3C394",
"1X c #E4C39B",
"2X c #EACB9C",
"3X c #EAC699",
"4X c #EED193",
"5X c #C5C2A5",
"6X c #C5C4AB",
"7X c #CAC6A8",
"8X c #D2CAAA",
"9X c #CDCAB3",
"0X c #CAC8B6",
"qX c #D4CDB3",
"wX c #D3CDB9",
"eX c #D4D2B5",
"rX c #D4D4BD",
"tX c #DBD5BC",
"yX c #DCD9BC",
"uX c #D8D6B7",
"iX c #D0D1B3",
"pX c #EBCCA3",
"aX c #E8CAA5",
"sX c #F2CBA5",
"dX c #EAD2AA",
"fX c #EAD8B6",
"gX c #F2DBBA",
"hX c #F6D3A3",
"jX c #F8E2BD",
"kX c #D4D5C2",
"lX c #DAD6C3",
"zX c #D5DAC4",
"xX c #DBDAC4",
"cX c #DCDDCB",
"vX c #D6D9C9",
"bX c #DDDED1",
"nX c #CFD0C0",
"mX c #E1DDCB",
"MX c #E4DBC4",
"NX c #E5DDD2",
"BX c #F1DEC2",
"VX c #DEE1CB",
"CX c #DEE1D3",
"ZX c #DEE3D9",
"AX c #E2E1CE",
"SX c #E7E3C8",
"DX c #F6E4C8",
"FX c #E3E3D5",
"GX c #E5E6D9",
"HX c #E9E6DC",
"JX c #E7E8DB",
"KX c #E9E9DC",
"LX c #EBE6D4",
"PX c #FDEFD4",
"IX c #EDEDE1",
"UX c #BEC1A4",
/* pixels */
"FXGXGXGXNXZXHXHXbXIXIXVXAXzXxXtXi.l x x a w 7 t w w w r t t r w w a d ( f >.Q >.,.G ,.G f a c c t c UXiXT.yXuXMXSXSX9X7XtXyXtX6X",
"FXGXGXGXGXGXGXGXIXvXFXGXVXLXqX7.x h a s t w t e t i t t h j j l z x l ,.l >.f G Q Q >.>.,.x c c t :.iXiXW.uX7X7XeXuX7X6XeXeXqX7X",
"FXFXGXGXGXbXGXZXIXbXFXHXcXLXD.k e h e i w r c h h s k l l l l x l l l ^ l ( f s d f f >.,.x f f t x 7X6XE.5XE.E.W.7XT.T.6X6X6XW.",
"FXGXFXGXGXGXGXJXNXIXFXvXmX9Xc g r g t r r t k h a l z z l s f G T T T T T f s d d s f f Q >.l x a 3.U.E.8.G.8.D.L.W.Q.UX6X5X*XT.",
"GXGXGXGXGXGXHXHXFXNXcXwXMXG.g r r r t r r a a j j l Y Y T T Y Q ! >.1.[ ) ~ ! ! ~ ~ G f G >.,.f x 5.G.G.8.6.6.G.E.UXUX6X9X6XUXQ.",
"GXGXbXGXGXGXGXNXLXkXGXmX*Xz g 7 r 6 i r a j d l T T T Q ~ >.9.u.r.r.u.a.M.k.C.M.r.r.1.G >.>.Q d :.G.J.E.y.3.3.G.L.6XUX0X9X5XW.R.",
"GXGXNXGXGXGXbXbXxXrXlXxX8.e a i i i i a ^ Q Q ~ ) / ) 1.r.^. X:X:X2X2X:X}.}.|.V.M.M.f.r.1.>.Y d l  X;XY.G.#.3.G.Q.6X6X0X6XQ.Q.I.",
"GXGXGXHXGXbXbXvXW.eXG.R.3.i a a a Y s T 9.9.q.1.9.q.r.M.|.:XdXdXyXfXfXfXdXdX:X:X<XV.V.V.r.>.Q d l ;X8X;XG.x 6.E.UX0X6X6X0XQ.Q.R.",
"HXHXKXNXKXlXwXwX*XP.P.( ( 7 a a s Q &.r.u.M.m.m.M.M.M.).oXdXgXBXDXDXDXgXgXhX2X2X,XV.V.C.f.q.~ d e 4.8X.XD.v 3.L.0X9X7XW.T..XT.K.",
"HXGXKXFXmX9XwX9XwX*X6.j 7 w s ^ &.r.x.^.^.'.[.[.M.|.M.}.1XdXgXBXDXDXDXDXDXgXdXpX2X}.V.M.r.q.>.s s )  XH.8.:.D.L.6X6X5XT.T..XY.I.",
"HXHXKXFX0X0XwXwXlX9X7.a 3 j T 9.a.).{.oX}.{.}.{.}.}.}.<XaXdXgXBXgXDXDXDXDXgXfXsX2X,X@X[.C.a.>.s f ( J.y.5.:.D.R.iX6XUXY.U..XT.J.",
"ZXHXJXFX=X0XkXeXwX9XL.h s $.u.x.).oX}.}.}.{.}.[.@X@X$XoX<XaXdXgXfXgXDXDXDXgXfXdX2X<X2X4X,X|.r.f a ( U.8.3.:.8.Q.6XUXUXY.U.Y.U.I.",
"GXZXGXGX=XkXcXlXiXQ.6.a ) t.m.^.oXoX1X$X}.@X@X}.+X@X@X@X<X1XaXsXfXfXgXBXgXfXfXaXhX2X2X<X@X<XM.>.y ( a.5.5.:.6.6XUXUXT.U.U.U.U.K.",
"HXGXGXbXnXlXFXAXrXG.a a 9.u.x.).oXoX1X$X@X}.{.}.+X{.{.@X$X$XaXaXaXaXdXdXdXdXaXsXdX2X2X:X}.<XV.1.w a ,.x 3.6.6.6XUXW.T.U.U.U.J.E.",
"JXFXJXZXcXvXmXLX5XG.w ^ y.M.x.^.'.oX$XoX{.'.[.).+XOX[.[.+X$X$X$X$X1X1XaXaXaXaXsX2XaX2X<X}.:XB.1.d 3 ( ,.3.8.D.Q.T.Y.T.Y.Y.U.H.G.",
"GXGXKXCXGXnXcXLXP.P.a Y t.u.^.m.'.'.oXoX'.|.[.|.[.'.B._.[.{.oX{.[.{.$X1X$X1XaX1XpXpXaX:X|.}.M.1.d 3 4.p.5.8.E.R.T.R.T.T.Y.J.H.p.",
"GXGXJXJXJXFXvXnXL.D.y $.t.x.^.u.~.^.^.'.'.'././._._._.OX_._.[.OX`.`.%X%XoX1X1XaXsX2X<X<X|.V.M.~ a w a.i.a.5.p.T.U.Y.T. X XY.K.a.",
"JXJXJXKXKXKXNXmXG.3.w ( 9.u.~.x.u.z.~.~./.~./././.N.B./.B._.)._.oX`.oX`.oX%X%X1X<X1X<X,X|.V.M.! w 3 5.i.5.5.5.G.Y.T.;X.X X XK.K.",
"JXGXGXJXHXHXHXGXL.c w ^ 9.w.u.u.z.u.~.~./.z.N./.N.N.m.)./.)._._.`.`.oXoX1X1X1X1X:X<X:X<XV.M.k.~ w 3 5.y.8.8.8.E.U.T.-X;X X XJ.J.",
"JXZXZXFXGXHXGXGXQ.c w l 9.t.e.l.x.~.~.^./././.N.).)./././.'.'._.^.`.%X%X1XaX1X1XaX2X<X<X|.B.M.[ e : G.5.G.3.G.L.I.Y.T. XJ.J.J.J.",
"JXJXJXJXHXHXHXGXrXv w a &.9.w.u.u.z./././.(.(./.)./.)./.(.(.(.(.`.`.%X%X1X%X%X1XaXaX1X<X|.B.x.~ t - 8.6.y.6.G.L.L.U. XU.K.K.K.].",
"GXGXJXJXKXKXHXHXCXD.6 e %.9.w.w.l.z.^.(.`.`.`.(._.`.'._._._.(.OX`.`.+X%X`.%X1XaXdXdXsXsX,XB.M.[ a 3 ( 8.8.E.G.I.E.U.U.I.K.K.K.a.",
"FXFXGXGXHXHXHXHXZX!.6 w ^ &.q.e.z.~.~.(./._.(.(.(.`.(.(.(.(.~.~.(.~.~.~.(.{.`.{.%X%X3X3X|.B.[.u.s 1 x G.8.G.8.E.P.U.U.U.J.K.K.s.",
"JXJXJXGXGXHXKXKXZX0X6 7 T &.w.u.u.z.z.z.z.z.z.c.~.~.~.~.z.v.v.l.l.l.l.l.z.z.l.0.$.&.1.1.1.q.V.B.T 7 i.XXG.8.p.E.P.I.U.J.J.].K.a.",
"GXGXJXGXHXJXJXHXbXnX#.3 j t.q.u.^.~.~.w.h.j.j.j.j.l.b.j.j.;.;.*.;.o.2.O.X.J 9 7 9 u W *.e.x.M.}.9.C hXg.K.H.G.E.E.I.U. XJ.J.K.s.",
"GXGXHXKXHXJXHXJXZXnX7.8 z 9.1.r.u.t.&.X.&.0.@.O.O.2.*.o.@.o.@. .@.} ' u 4 < 4 9 h J X.w.~.'.{.1X^.u { ] G.y.G.T.I.U.T. XJ.].s.M.",
"GXGXKXKXJXJXHXJXJX=X#.6 ^ &.T J s y 9 7 9 d P / | ..} } }  .` _ I Z C 9 2 q 8 7 q q 9 p &.x.^.<XoXu m S s.a.p.E.U..X.XXX X X>Xs.",
"KXKXKXKXIXJXIXKXJXW.z 6 ( 9./ s j 7 4 - % - 4 9 J R _ ` ` ` _ I ' L N 7 1 8 - - 1 8 , + 0 X.m.2XoX! S -.K.^.H.G. X.X*X-X;X X].].",
"HXKXKXKXKXKXKXKXFX6X#.i &.t.t.&.$.j g 8 : 8 8 1 u p W _ ' ` | _ I M 9 2 7 k g : w 6.v < 4 W x.V.oXk.<.=.s.].K.E.Y.;X-X;X;X].].s.",
"HXGXJXKXKXKXHXHXKXwX#.a $.w.t.^ , % 8 : * * : 1 2 9 N R ` ..@.@.I 0 2 2 h z : . : ( $.T W e.[.hX1XM.g.b.p.;XU.K.;X-X7X;X;X X].].",
"GXGXHXKXKXHXJXJXKXiX#.s &.9.$.y % 8 k g ; ; : 7 2 9 0 L ..j.*.;.R N u 0 p J l P T / 0.k.B.V.|.4X<XB.n.v.5.uXUXK.-XiX8X;X X;X;X>X",
"GXGXJXHXJXJXJXJXCXtXy.T 9.9./ 9 2 r v g ; > 6 g 8 q p Z @.l.j.j.&.W V 0 N P B L Z ] +.b.B.3XhX2X2X@X+Xb.:.yXiX;X8XiX-X;X;X;X;X;X",
"FXFXJXJXJXJXJXGXGXbXz H.9.X.X.p p J / J P 0 N j 0 q 0 L *.~.+Xe.0.+.| N 0 0 p N n B } k.%XsXpX2X,X,X{.^.Y 8XyX7XeX8X8X8X-X-XiXfX",
"FXJXFXFXJXLXFXJXGXZX#.P.i.q.X./ ) / L P j P p 0 q j L | l.`.&X'.h.0...E J N N V _ @.b.+X3XsX2X2X,X$X}.u.f Y.uXuXeXuXeXeX8X8XuXyX",
"FXFXJXJXJXJXJXGXNXHXL.L.^.e.X.w.*.X./ L P b p 0 P | &.&.~.oXsX%Xx.h.h.h.h.@.}  .2.b.OX&X&X$X$X$X@X[.3X9.a p.-XyXuXuXtXuXuXuXuXyX",
"FXFXFXFXFXGXGXGXZXJXnX8.oXu.*.u.*.*...| L B N V | ;.*.*.~.`.3X1X+Xc.h.0.0.+.j.j.b.v.OXOX_.+X%X%X[.B.1XY a 5.K.uXrXtXtXxXyXuXVXyX",
"FXFXFXCXFXFXFXFXFXZXcX#.oXu.l.l.w.j.o.} I K _ o.*.l.*.*.(.OXaX1X&X+XN.k.d.d.d.j.v.v.OXc.(.+X%X&X#XB.|.d a 4.p.-XuXxXxXxXtXxXxXxX",
"FXFXFXFXFXFXFXGXLXCXbX3.F.w.z.l.l.;.*.*.;.;.;.;.*.*.*.*.(.OX%X%X%X@X_.b.d.=.=.=.j.b.v.v.(.OX+XOX@XB.u.4 a 4.5.].uXtXtXxXxXlXxXxX",
"FXCXCXCXFXCXFXGXGXZXZXL.t.9.l.l.j.;.*.;.;.;.=. .+.} o.h.(.c.%X%XsX+XB.d.] S S -.-.;.j.j.b.v.c.N.B.m.9.3 l 3.5.p.5XiXtXxXzXxXlXlX",
"FXFXCXAXCXFXFXFXmXZXbXnX$.w.w.0.;.;.;. . . . . .` _ o.l.c.b.&X&X3X%X&X#Xg.S D S I U =.=.;.b.v.n.k.B.9.w x 4.>.i.U.5XuXxXkXkXrXuX",
"cXbXbXcXcXbXcXAXxXHXbXbX4.9.*.l.;.;.o. . .] K B I +.j.(.OX(.OX3X3X%X%X&X&XZ Z n A S I ] +.d.d.g.k.2.$.%. XG.G.F.K.*XqXfXlXtXlXmX",
"bXCXbXbXbXVXcXcXVXZXZXNXP.q.*.*.*. .U U ] I B B o.j.j.j.v.B.OX#X#X#X3XOXOX` Z b b A S ] ] ] ] d.{ q.t.( DXPXfXNXyXyXMXMXNXLXLXLX",
"bXCXcXbXcXcXcXVXCXvXZXcX8Xt.*. . .U K I Z B M M } j.+.+.j.v.v.v.b.j.j.=.+.I Z b 5 n A B S ' ' @.{ 2.^ 3 7.MXlXBXDXSXeXeXMXMXMXMX",
"CXcXcXcXvXcXcXcXCXnXCXVXqX&.&.@.| I L Z B b b n B _ I S ] +.=.+. .Z A A Z Z K V u 0 5 0 Z S H [ { w.a = % =XMXnX8X8X9XqX=X=XF.F.",
"AXbXVXvXcXxXVXxXAXvXVXVXQ.j X.X.K Z Z B N 0 0 n V L M M B A K I S M A F | W C p 5 4 4 5 b Z ' [ <.k.a w ; D.P.D.D.D.^ k q 1 1 1 ",
"bXVXcXVXcXxXxXzXxXcXrXnXD.- $.E L V N u 5 2 9 0 V L V L V n M M M B Z C W W 9 2 4 2 5 5 m Z ` 2.{ ~ - @ = = - = + , , , , , , , ",
"cXcXvXvXzXVXzXxXlXcXzXnXD.* t.~ C C u 5 2 2 2 7 7 P J J V n 0 b 0 V Z C R T 2 2 5 0 u m H [ { 2.k.s # @ : O # = = = = = + & , , ",
"cXVXVXxXxXxXzXxXzXVXVXvXQ.* XX>.J C u 5 2 2 1 < $ q p u q 0 N b b M Z | h.| 0 P Z V M Z ` { { <...< O * @ O = O o & o & = = = > ",
"ZXcXcXmXmXMXxXzXxXmXuXrX!.. iXE.^ V Z n u 4 p q 1 2 J / V n W J >.9.w.w.} I L U ` Z ' ` [ { 2.<.^ % o & & *   @ @ @ @ X @ # # # ",
"CXCXmXvXkXzXkXzXwXxXcXvX!.. 0X6Xu.R Z R E 9 p N p q V J | | w.*.u.u.0. .I I | *.@.` ` ] { <.2.2.a $ # & X ; @   @ @ X # o # X # ",
"cXcXcXcXvXVXvXVXbXvXxXcXQ.; 0XiX7X9.C R ' u u C B 5 0 p P K | | I ]  .U U U *.;.O.+.{ { 2.2.2.r.7 O # * O @ & > @ @ X @ o o # # ",
"vXcXmXcXvXvXzXzXvXnXiXnXQ.; 9X7XuX*X) R F Z m C U L L L P P U U U U U I U  .o.O.2.j.2.{ d.2.2.k.;   . @ @ = & & X X X o # # # & ",
"FXAXvXxXzXkXkXkX0XVXzXrXQ.. 0XiXUX5X4.W Z [ F F P L L L B b b I b b D D ] *.0.0.2.k.j.<.2.2.r.k.    & & O = o O X o o o o # # # ",
"FXVXcXzXrXxXxXMXzXtX8X*XL.. G.y.7.7.( / W ' ' W W / E | I I D D I U  .=.2.0.O...2.k.k.d.2.2.f.M.8 &   & & O o = o o o o o & o = ",
"FXbXvXzXxXtX8X7XXXH.t.4.%.O j j #.( l $.) _ [ X.| | E | U _ L S S I I ] [ @.2.0.b.k.k.f.<.f.C.C.e.d + + = + O + X o & o o = o o ",
"NXbXbXcXrX7XH.t.&.Q / J j % j Q %.c h #.$.E ..) @.@._ _ L | K ' @.d.b.v.b.j.j.b.N.k.k.<.<.f.V.C.A.C.W 8 + o & + o X + o & o o o ",
"ZXAXtXoXa.9.1.) E W T / j 1 h %.k g 6.h ^ ) X.[ O.@.......@.h.b.v.N._.}.{.{.'.N.B.k.<.[ f.C.n.n.C.A.Z.V.<.y % $ > & X X o o + % ",
"AX9XJ.u.w.q.1.X.~ C C p j %.; v g v k - ) X.C [ X.O.O.2.+.*.j.l.b.v.OX{.+X@X+XOXk.<.[ <.f.n.n.n.Z.Z.Z.S.,X>Xa.>.1 < + O O o + O ",
"XX^.q.q.h.0.1.E W C J a $.%.8 g k k 8 1 T &./ ! E X.0.0.0.*.*.;.+.d.j.z._.OX(.v.{ H H <.n.f.f.n.Z.S.,X,X4X4X4XV.C.2.s < o o * o ",
"u.e.w.r.j.q.X./ G G T ) $.v #.: g 1 = i s W X.G G E X.O.*.+.@. .] ` ` 0.l.v.2.` F H H f.n.f.f.C.A.Z.4X,X,X>XS.4X4X,X].P.XX=X=X*X",
"w.e.k.r.q.1.O.X.X.s %.t.k D.$.8 = 1 1 j Q / ~ ~ W W G W [ ..@.} @.] H [ @.[ S m A H <.f.f.d.f.n.Z.S.>X,X,X,X4X4X:XdXBXNXHXIXNXwX",
"e.r.r.r.q.9.1.X./ J t.$.#.D.k 8 < s s / &.1.[ [ ! W G m m Z R R R F Z m m n m A A { f.f.d.<.f.n.V.,XS.Z.>X4X4XV.fXMXNXcXvXvXxXxX",
"f.r.r.e.w.w.X.) Q $.y.#.7.z i 1 u j W X.~ ) 1.W [ ! G m s n m m n n m u u n m F H <.f.<.<.<.f.n.V.Z.,XZ.[.,XaXdXcXmXFXFXNXNXAXAX",
"w.w.w.q.2.9.O.O.$.u.F.7.v j 7 7 T C T ) ! ! ! ! W ! ! E G m u m m p m m m m F H { { { <.<.<.g.Z.#XZ.C.S.S.|.7XMXlXxXxXcXcXMXNXNX"
};
